<svg width="40" height="40" viewBox="0 0 40 40" fill="none" xmlns="http://www.w3.org/2000/svg">
<path d="M4.84071 18.852C4.9142 18.8159 4.98772 18.7816 5.05937 18.7491C6.30498 18.1828 7.56713 17.6524 8.82744 17.1221C8.89541 17.1221 9.00929 17.0446 9.07359 17.0193C9.17096 16.9778 9.26835 16.9382 9.36572 16.8967C9.55311 16.8173 9.74052 16.7397 9.92607 16.6604C10.3009 16.5034 10.6738 16.3465 11.0486 16.1896C11.7963 15.8758 12.544 15.5619 13.2918 15.2463C14.7872 14.6186 16.2846 13.989 17.78 13.3613C19.2755 12.7336 20.7728 12.1041 22.2683 11.4764C23.7637 10.8487 25.261 10.2192 26.7565 9.59151C28.252 8.9638 29.7493 8.3343 31.2448 7.7066C31.5773 7.56591 31.9374 7.35667 32.2938 7.29534C32.5933 7.24303 32.8853 7.14204 33.1866 7.08612C33.758 6.9797 34.3882 6.9364 34.9356 7.16909C35.1249 7.25026 35.2994 7.36387 35.4446 7.50636C36.139 8.18097 36.0416 9.28849 35.8947 10.2373C34.8713 16.8498 33.848 23.4641 32.8229 30.0767C32.6833 30.9839 32.4922 31.9796 31.7628 32.5532C31.1455 33.0384 30.2673 33.0925 29.5049 32.8869C28.7425 32.6794 28.0701 32.2447 27.4105 31.8173C24.675 30.0388 21.9376 28.2603 19.202 26.4818C18.5517 26.0597 17.8278 25.5078 17.8352 24.7412C17.8388 24.2794 18.1199 23.8681 18.4065 23.502C20.7838 20.4572 24.2138 18.3649 26.7657 15.4609C27.1258 15.0515 27.4087 14.3119 26.9145 14.0756C26.6206 13.9349 26.2825 14.1261 26.0143 14.3083C22.6412 16.6081 19.27 18.9096 15.8969 21.2094C14.7964 21.9598 13.6427 22.7318 12.3163 22.9158C11.1294 23.0817 9.93527 22.757 8.78703 22.4251C7.82434 22.1474 6.86346 21.8624 5.90629 21.5684C5.39739 21.4132 4.87195 21.2455 4.47879 20.8938C4.08563 20.542 3.85969 19.9504 4.09669 19.4815C4.2455 19.1874 4.53394 19.0017 4.83708 18.8501L4.84071 18.852Z" fill="white"/>
</svg>
