<svg width="40" height="40" viewBox="0 0 40 40" fill="none" xmlns="http://www.w3.org/2000/svg">
<path d="M36.7102 14.6657C36.5014 12.71 36.052 10.548 34.3981 9.41188C33.117 8.53082 31.4332 8.49825 29.8613 8.50006C26.5384 8.50187 23.2137 8.5055 19.8909 8.5073C16.6948 8.51092 13.4988 8.51274 10.3027 8.51636C8.9676 8.51817 7.66978 8.41686 6.42977 8.9777C5.36504 9.45894 4.53153 10.3743 4.02994 11.3929C3.33441 12.8095 3.18898 14.4142 3.10507 15.9809C2.9503 18.834 2.96708 21.6943 3.15168 24.5455C3.2878 26.626 3.63276 28.9254 5.29046 30.2515C6.75982 31.4257 8.83334 31.4836 10.739 31.4854C16.788 31.4908 22.8389 31.4962 28.8898 31.4999C29.6655 31.5017 30.4748 31.4872 31.2654 31.404C32.8205 31.2411 34.3029 30.8088 35.3024 29.6907C36.3112 28.5636 36.5704 26.995 36.7233 25.5097C37.0962 21.9059 37.0925 18.2677 36.7102 14.6657ZM16.3927 25.052V14.9479L25.4103 19.9991L16.3927 25.052Z" fill="white"/>
</svg>
